<svg width="192" height="69" viewBox="0 0 192 69" fill="none" xmlns="http://www.w3.org/2000/svg">
<path d="M2.479 57.92L5.935 56C7.855 58.752 10.351 60.928 13.423 62.528C16.495 64.064 19.855 64.832 23.503 64.832C29.455 64.832 34.383 62.976 38.287 59.264C42.255 55.488 44.239 50.848 44.239 45.344V32.48C42.447 36.32 39.791 39.36 36.271 41.6C32.751 43.776 28.815 44.864 24.463 44.864C17.743 44.864 12.143 42.72 7.663 38.432C3.119 34.08 0.847 28.768 0.847 22.496C0.847 16.224 3.119 10.912 7.663 6.56C12.143 2.272 17.743 0.127998 24.463 0.127998C31.119 0.127998 36.719 2.208 41.263 6.368C45.807 10.528 48.079 15.648 48.079 21.728V45.344C48.079 51.936 45.711 57.504 40.975 62.048C36.303 66.464 30.447 68.672 23.407 68.672C18.991 68.672 14.927 67.712 11.215 65.792C7.567 63.872 4.655 61.248 2.479 57.92ZM10.543 35.744C14.255 39.264 18.895 41.024 24.463 41.024C30.031 41.024 34.671 39.264 38.383 35.744C42.159 32.16 44.047 27.744 44.047 22.496C44.047 17.312 42.159 12.928 38.383 9.344C34.607 5.76 29.967 3.96799 24.463 3.96799C18.959 3.96799 14.319 5.76 10.543 9.344C6.767 12.928 4.879 17.312 4.879 22.496C4.879 27.744 6.767 32.16 10.543 35.744ZM61.3608 45.248V23.552C61.3608 16.896 63.6968 11.328 68.3688 6.848C73.0408 2.368 78.8968 0.127998 85.9368 0.127998C92.9768 0.127998 98.8328 2.368 103.505 6.848C108.241 11.392 110.609 16.96 110.609 23.552V45.248C110.609 51.84 108.241 57.408 103.505 61.952C98.8328 66.432 92.9768 68.672 85.9368 68.672C78.8968 68.672 73.0408 66.432 68.3688 61.952C63.6968 57.472 61.3608 51.904 61.3608 45.248ZM65.2008 23.456V45.344C65.2008 50.848 67.1848 55.488 71.1528 59.264C75.0568 62.976 79.9848 64.832 85.9368 64.832C91.8888 64.832 96.8168 62.976 100.721 59.264C104.753 55.488 106.769 50.848 106.769 45.344V23.456C106.769 17.952 104.753 13.344 100.721 9.632C96.7528 5.856 91.8248 3.96799 85.9368 3.96799C80.0488 3.96799 75.1208 5.856 71.1528 9.632C67.1848 13.408 65.2008 18.016 65.2008 23.456ZM130.864 68L128.56 66.08L182.992 0.799995L185.392 2.816L130.864 68ZM138.064 0.127998C142.544 0.127998 146.288 1.632 149.296 4.64C152.304 7.648 153.808 11.36 153.808 15.776C153.808 20.32 152.304 24.096 149.296 27.104C146.352 30.048 142.608 31.52 138.064 31.52C133.648 31.52 129.936 30.016 126.928 27.008C123.92 24 122.416 20.256 122.416 15.776C122.416 11.36 123.92 7.648 126.928 4.64C129.936 1.632 133.648 0.127998 138.064 0.127998ZM138.064 3.68C134.608 3.68 131.728 4.832 129.424 7.136C127.12 9.44 125.968 12.32 125.968 15.776C125.968 19.232 127.12 22.112 129.424 24.416C131.728 26.72 134.608 27.872 138.064 27.872C141.456 27.872 144.336 26.752 146.704 24.512C149.008 22.208 150.16 19.328 150.16 15.872C150.16 12.416 149.008 9.536 146.704 7.232C144.4 4.864 141.52 3.68 138.064 3.68ZM175.6 68.672C171.056 68.672 167.312 67.2 164.368 64.256C161.424 61.312 159.952 57.568 159.952 53.024C159.952 48.48 161.424 44.736 164.368 41.792C167.376 38.784 171.12 37.28 175.6 37.28C180.016 37.28 183.728 38.784 186.736 41.792C189.744 44.8 191.248 48.544 191.248 53.024C191.248 57.504 189.744 61.248 186.736 64.256C183.792 67.2 180.08 68.672 175.6 68.672ZM163.504 53.024C163.504 56.48 164.656 59.36 166.96 61.664C169.264 63.968 172.144 65.12 175.6 65.12C179.056 65.12 181.936 63.968 184.24 61.664C186.544 59.36 187.696 56.48 187.696 53.024C187.696 49.568 186.544 46.688 184.24 44.384C181.936 42.016 179.056 40.832 175.6 40.832C172.144 40.832 169.264 41.984 166.96 44.288C164.656 46.592 163.504 49.504 163.504 53.024Z" fill="#00BDA0"/>
</svg>
